<svg xmlns="http://www.w3.org/2000/svg"  viewBox="0 0 48 48" width="48px" height="48px" baseProfile="basic"><path fill="#9ed9de" stroke="#1d1d1b" stroke-miterlimit="10" d="M11.482,5.494c-2.543,0.311-5.148,2.562-6.017,4.971	s-1.101,4.829-1.047,7.39c0.118,5.607,0.123,11.33,0.241,16.937c0.042,1.984,0.504,4.175,1.568,5.849	c1.691,2.661,4.926,3.159,8.064,3.462c7.776,0.752,15.92,0.825,23.69,0.009c1.234-0.13,2.169-0.922,2.514-1.353	c2.822-3.537,3.062-7.698,3.015-12.222c-0.045-4.375,0.126-9.592,0.08-13.967c-0.033-3.148-0.601-6.596-2.922-8.723	c-2.108-1.931-5.216-2.444-8.075-2.434C26.242,5.434,14.532,5.373,11.482,5.494z"/><path fill="#4b7bb2" stroke="#1d1d1b" stroke-miterlimit="10" d="M26.453,34.592c0.048,1.005,0.588,2.363,3.094,2.009	c2.284-0.323,2.288-2.968,1.762-3.775"/><path fill="#d6e5e5" stroke="#1d1d1b" stroke-miterlimit="10" d="M23.895,34.338c0.872,0.048,1.746,0.096,2.616,0.03	c2.801-0.212,5.485-1.664,7.196-3.891c1.711-2.227,2.422-5.195,1.905-7.956c-0.118-0.63-0.296-1.248-0.506-1.854	c-0.746-2.152-1.946-4.213-3.766-5.582c-1.66-1.248-3.774-1.851-5.849-1.76c-2.075,0.09-4.101,0.858-5.775,2.088	c-1.454,1.069-2.639,2.495-3.453,4.104c-0.944,1.868-1.03,3.699-1.349,5.719c-0.239,1.513,0.099,3.537-2.71,3.537	c-0.117,1.683,3.193,3.709,4.491,4.292C18.945,34.073,21.47,34.205,23.895,34.338z"/><path fill="#4b7bb2" stroke="#1d1d1b" stroke-miterlimit="10" d="M21.476,31.943c-0.642-0.883-1.365-0.923-2.123-0.928	c-0.982-0.007-3.372,1.289-2.913,3.732c0.34,1.812,1.847,2.238,2.226,2.293c0.909,0.134,1.786-0.012,2.601-0.436	C23.018,35.694,22.562,33.436,21.476,31.943z"/><path fill="#1d1d1b" d="M22.979,26.389c0.006,0.017,0.607,1.718,2.688,2.134c0.745,0.147,3.254,0.428,4.336-2.208 c0.106-0.255,0.401-0.378,0.652-0.272c0.256,0.105,0.378,0.397,0.273,0.652c-0.888,2.162-2.672,2.92-4.341,2.92 c-0.383,0-0.759-0.04-1.116-0.111c-2.664-0.533-3.466-2.731-3.474-2.964c0,0-0.106-0.433,0.374-0.523 C22.8,25.936,22.979,26.389,22.979,26.389z"/><path fill="#4b7bb2" stroke="#1d1d1b" stroke-miterlimit="10" d="M23.483,20.163c-0.738-0.211-1.614,0.459-1.56,1.224	c0.012,0.168,0.115,0.762,0.858,0.943c0.53,0.129,1.144-0.08,1.369-0.699C24.477,20.729,23.483,20.163,23.483,20.163z"/><path fill="#4b7bb2" stroke="#1d1d1b" stroke-miterlimit="10" d="M30.449,20.15c-0.738-0.211-1.6,0.473-1.526,1.237	c0.039,0.401,0.517,0.814,1.102,0.883c0.516,0.061,1.023-0.244,1.204-0.682C31.507,20.917,31.068,20.364,30.449,20.15z"/></svg>